<svg clip-rule="evenodd" fill-rule="evenodd" stroke-linejoin="round" stroke-miterlimit="2" viewBox="0 0 93 89" xmlns="http://www.w3.org/2000/svg"><g transform="translate(-13.991791 -64.822306)"><path d="m29.631 133.137c-1.33-1.33-2.581-2.698-3.746-4.102-3.861-4.656-6.829-9.716-8.823-15.04-2.208-5.897-3.234-12.167-3.049-18.633.236-8.24 3.315-15.935 8.671-21.665 4.97-5.317 11.527-8.543 17.991-8.85 5.563-.264 10.574 1.593 14.492 5.368 4.306 4.151 6.991 10.279 7.975 18.215.152 1.226.264 2.503.331 3.796.828 15.829 12.281 19.245 23.357 22.549l.178.053c4.8 1.431 9.333 2.782 12.863 5.081 4.263 2.777 6.389 6.54 6.493 11.504.127 5.988-3.089 11.487-9.055 15.482-5.282 3.537-12.469 5.688-20.24 6.054-8.392.397-17.089-1.255-25.15-4.776-8.437-3.685-16.18-8.929-22.288-15.036zm22.628-59.565c-2.995-2.995-6.861-4.51-11.373-4.296-10.447.496-21.997 10.658-22.441 26.213-.436 15.269 6.294 26.519 14.183 34.408 7.844 7.844 16.834 12.366 21.067 14.215 16.645 7.269 32.662 4.786 41.15-.898 4.665-3.124 7.183-7.281 7.09-11.705-.154-7.281-6.253-9.468-16.191-12.431l-.179-.053c-5.632-1.679-12.015-3.584-17.085-7.415-5.905-4.463-8.991-10.727-9.432-19.15-.062-1.189-.164-2.36-.303-3.482-.84-6.776-3.11-12.03-6.484-15.405v-.002z"/><path d="m58.004 115.272c-4.554-4.555-7.055-10.601-7.443-18.018-.064-1.222.876-2.266 2.097-2.33 1.223-.064 2.266.876 2.33 2.097.902 17.244 14.791 21.481 22.99 22.473 1.216.148 2.081 1.252 1.935 2.467-.147 1.216-1.252 2.082-2.466 1.935-4.797-.58-11.703-2.224-17.358-6.759-.737-.59-1.433-1.213-2.085-1.865z"/></g></svg>