<svg clip-rule="evenodd" fill-rule="evenodd" stroke-linejoin="round" stroke-miterlimit="2" viewBox="0 0 192 192" xmlns="http://www.w3.org/2000/svg"><path d="m192 48v96c0 26.492-21.508 48-48 48h-96c-26.492 0-48-21.508-48-48v-96c0-26.492 21.508-48 48-48h96c26.492 0 48 21.508 48 48z" fill="#ebebeb"/><path d="m99.059 136.551c.335 15.787-26.24 25.644-51.342 14.681-17.728-7.742-37.32-24.746-36.578-50.717.856-29.947 40.317-42.164 44.714-6.722.144 1.162.251 2.374.317 3.639.905 17.301 13.594 21.173 24.937 24.557 9.333 2.784 17.754 5.236 17.951 14.561h.001zm49.178-27.137c.252 11.843-19.684 19.237-38.515 11.014-13.3-5.809-27.996-18.564-27.44-38.047.642-22.465 30.244-31.63 33.544-5.042.108.871.188 1.781.238 2.73.679 12.979 10.197 15.884 18.708 18.423 7 2.088 13.319 3.927 13.466 10.924zm31.789-23.467c.176 8.326-13.839 13.524-27.077 7.743-9.35-4.083-19.681-13.051-19.291-26.747.451-15.793 21.263-22.237 23.582-3.545.076.613.131 1.252.166 1.919.477 9.124 7.17 11.167 13.152 12.951 4.922 1.468 9.363 2.761 9.468 7.68h-.001z" fill="#82a53c"/><path d="m29.631 133.138c-1.33-1.33-2.581-2.699-3.746-4.103-3.861-4.656-6.829-9.716-8.823-15.04-2.208-5.897-3.234-12.167-3.049-18.633.236-8.24 3.315-15.935 8.671-21.665 4.97-5.317 11.527-8.543 17.991-8.85 5.563-.264 10.574 1.593 14.492 5.368 4.306 4.151 6.991 10.279 7.975 18.215.152 1.226.264 2.503.331 3.796.828 15.829 12.281 19.245 23.357 22.549l.178.053c4.8 1.431 9.333 2.782 12.863 5.081 4.263 2.777 6.389 6.54 6.493 11.504.127 5.988-3.089 11.487-9.055 15.482-5.282 3.537-12.469 5.688-20.24 6.054-8.392.397-17.089-1.255-25.15-4.776-8.437-3.685-16.181-8.929-22.289-15.036zm22.628-59.566c-2.995-2.995-6.861-4.51-11.373-4.296-10.447.496-21.997 10.658-22.441 26.213-.436 15.269 6.294 26.519 14.183 34.408 7.844 7.844 16.834 12.366 21.067 14.215 16.645 7.269 32.662 4.786 41.15-.898 4.665-3.124 7.183-7.281 7.09-11.705-.154-7.281-6.253-9.468-16.191-12.431l-.179-.053c-5.632-1.679-12.015-3.584-17.085-7.415-5.905-4.463-8.991-10.727-9.432-19.15-.062-1.189-.164-2.36-.303-3.482-.84-6.776-3.11-12.03-6.484-15.405v-.002zm5.744 41.7c-4.554-4.555-7.054-10.601-7.442-18.018-.064-1.222.876-2.266 2.097-2.33 1.223-.064 2.266.876 2.33 2.097.902 17.244 14.791 21.481 22.99 22.473 1.216.148 2.081 1.252 1.935 2.467-.147 1.216-1.252 2.082-2.466 1.935-4.797-.58-11.703-2.224-17.358-6.759-.737-.59-1.432-1.214-2.084-1.866l-.001.001zm38.151-8.419c-.998-.998-1.936-2.025-2.81-3.078-2.896-3.493-5.123-7.288-6.619-11.283-1.657-4.424-2.426-9.127-2.287-13.978.176-6.182 2.487-11.954 6.505-16.252 3.728-3.989 8.647-6.408 13.496-6.639 4.172-.198 7.933 1.194 10.871 4.027 3.231 3.113 5.244 7.711 5.982 13.664.115.92.198 1.878.249 2.848.621 11.875 9.213 14.437 17.521 16.915l.134.04c3.6 1.073 7 2.088 9.649 3.812 3.199 2.083 4.793 4.906 4.872 8.63.095 4.492-2.317 8.617-6.792 11.615-3.963 2.654-9.355 4.265-15.183 4.54-6.296.297-12.819-.941-18.868-3.583-6.327-2.764-12.137-6.696-16.72-11.278l.001-.001zm16.976-44.685c-2.248-2.248-5.148-3.383-8.533-3.223-7.837.372-16.501 7.996-16.834 19.664-.328 11.454 4.721 19.894 10.638 25.813 5.886 5.885 12.63 9.276 15.804 10.663 12.487 5.453 24.502 3.591 30.87-.674 3.499-2.343 5.387-5.462 5.317-8.78-.115-5.463-4.69-7.102-12.146-9.326l-.134-.04c-4.225-1.261-9.012-2.689-12.817-5.563-4.431-3.348-6.745-8.047-7.075-14.366-.047-.892-.124-1.771-.229-2.612-.63-5.083-2.332-9.024-4.863-11.556h.001zm4.309 31.282c-3.417-3.417-5.293-7.952-5.583-13.516-.049-.917.656-1.7 1.574-1.747.917-.048 1.699.657 1.747 1.574.677 12.936 11.095 16.115 17.246 16.859.911.11 1.561.938 1.451 1.85-.111.911-.938 1.561-1.85 1.451-3.598-.436-8.78-1.668-13.022-5.07-.552-.444-1.074-.91-1.563-1.399l-.001-.001zm25.972-9.305c-.7-.701-1.36-1.423-1.975-2.164-2.035-2.456-3.601-5.123-4.652-7.932-1.164-3.111-1.705-6.416-1.609-9.827.125-4.346 1.748-8.404 4.574-11.426 2.621-2.804 6.078-4.505 9.488-4.666 2.933-.139 5.577.84 7.643 2.831 2.271 2.189 3.686 5.421 4.205 9.606.081.646.139 1.32.175 2.002.436 8.348 6.476 10.15 12.317 11.892l.095.028c2.531.755 4.921 1.468 6.783 2.68 2.25 1.465 3.369 3.449 3.426 6.066.067 3.158-1.63 6.058-4.776 8.165-2.785 1.865-6.576 2.999-10.673 3.192-4.427.209-9.012-.662-13.264-2.519-4.45-1.944-8.534-4.709-11.756-7.929v.001zm11.934-31.414c-1.58-1.58-3.618-2.379-5.998-2.266-5.51.262-11.6 5.621-11.835 13.824-.23 8.052 3.318 13.986 7.479 18.146 4.137 4.137 8.878 6.522 11.11 7.496 8.778 3.834 17.225 2.525 21.702-.473 2.46-1.648 3.787-3.84 3.738-6.173-.081-3.84-3.298-4.993-8.539-6.556l-.094-.028c-2.97-.886-6.336-1.89-9.011-3.911-3.115-2.354-4.742-5.657-4.974-10.099-.032-.627-.086-1.244-.159-1.836-.444-3.573-1.64-6.345-3.42-8.124zm3.031 21.992c-2.402-2.402-3.722-5.59-3.926-9.502-.034-.644.462-1.195 1.107-1.228.644-.033 1.194.462 1.228 1.107.476 9.094 7.801 11.329 12.125 11.851.64.077 1.098.66 1.019 1.301-.076.641-.66 1.098-1.3 1.02-2.531-.306-6.173-1.172-9.155-3.564-.389-.311-.756-.64-1.1-.983l.001-.002z" fill="#403f41"/></svg>